<svg data-v-423bf9ae="" xmlns="http://www.w3.org/2000/svg" viewBox="0 0 164 90" class="iconLeft"><!----><!----><!----><g data-v-423bf9ae="" id="56686cda-9121-4adb-b5c9-e35c7cdfd95d" fill="white" transform="matrix(8.11907958984375,0,0,8.11907958984375,102.61163330078125,-41.5088005065918)"><path d="M2.98 14.35L2.98 9.60C2.98 8.90 3.61 8.55 4.26 8.55C5.07 8.55 5.47 9.04 5.47 9.95L5.47 14.35L7.55 14.35L7.55 9.67C7.55 7.92 6.58 6.96 5.19 6.96C4.03 6.96 3.39 7.63 3.07 8.44L2.98 8.44L2.98 7.13L0.91 7.13L0.91 14.35Z"></path></g><!----><g data-v-423bf9ae="" id="cb71fcc7-9dbc-469c-aa9e-0b60c4387d33" transform="matrix(2.8125,0,0,2.8125,0,0)" stroke="none" fill="white"><path d="M0 16.024L15.976 32 32 15.976 16.024 0 0 16.024zm15.989 7.323l-7.336-7.336 14.694-.022-7.358 7.358z"></path></g><!----></svg>