<svg data-v-fde0c5aa="" xmlns="http://www.w3.org/2000/svg" viewBox="0 0 300 300" class="iconLeft"><!----><defs data-v-fde0c5aa=""><!----></defs><rect data-v-fde0c5aa="" fill="#FF6906" x="0" y="0" width="300px" height="300px" class="logo-background-square"></rect><defs data-v-fde0c5aa=""><!----></defs><g data-v-fde0c5aa="" id="97d7c05e-62a1-4db9-a81e-48b4bee7ef59" fill="#ffffff" transform="matrix(11.678420066833496,0,0,11.678420066833496,171.82792661111972,25.566435169075135)"><path d="M2.98 14.35L2.98 9.60C2.98 8.90 3.61 8.55 4.26 8.55C5.07 8.55 5.47 9.04 5.47 9.95L5.47 14.35L7.55 14.35L7.55 9.67C7.55 7.92 6.58 6.96 5.19 6.96C4.03 6.96 3.39 7.63 3.07 8.44L2.98 8.44L2.98 7.13L0.91 7.13L0.91 14.35Z"></path></g><defs data-v-fde0c5aa=""><!----></defs><g data-v-fde0c5aa="" id="76c0cc71-7b17-42c6-96a7-a0713f8724e1" stroke="none" fill="#FFB31D" transform="matrix(4.045477867126465,0,0,4.045477867126465,40,85.27235555742314)"><path d="M0 16.024L15.976 32 32 15.976 16.024 0 0 16.024zm15.989 7.323l-7.336-7.336 14.694-.022-7.358 7.358z"></path></g><!----></svg>