<svg xmlns="http://www.w3.org/2000/svg" viewBox="0 0 24 24"><path d="M3.501 19.636a.5.5 0 0 1-.493-.585L6.173.833a.991.991 0 0 1 .808-.817.98.98 0 0 1 1.04.482l2.842 4.9a.5.5 0 1 1-.866.502L7.156 1.001l-3.164 18.22a.5.5 0 0 1-.491.415z"/><path d="M12 24.002c-.465 0-.93-.117-1.353-.351l-7.389-4.073a.502.502 0 0 1-.113-.791l13.82-13.868a1.002 1.002 0 0 1 1.008-.247c.357.114.62.416.685.788l2.336 13.595a.5.5 0 0 1-.252.522l-7.389 4.074a2.792 2.792 0 0 1-1.353.351zm-7.678-4.98 6.808 3.753c.545.301 1.195.3 1.74 0l7.077-3.902-2.276-13.244-.001-.005L4.322 19.022z"/><path d="M3.5 19.636a.499.499 0 0 1-.445-.728L11.133 3.19a.997.997 0 0 1 .868-.544.972.972 0 0 1 .89.509l2.435 4.31a.501.501 0 0 1-.871.493l-2.435-4.31-8.076 15.716a.498.498 0 0 1-.444.272z"/></svg>