<svg width="204" height="30" viewBox="0 0 204 30" fill="none" xmlns="http://www.w3.org/2000/svg">
<path d="M14.9149 13.2415L26.777 1.37932C27.2598 0.896561 26.9149 0 26.2253 0H14.432C13.8113 0 13.1906 0.275865 12.7078 0.689662L0.225034 13.2415C-0.257729 13.7243 0.0871353 14.6208 0.776797 14.6208H11.6045C12.2941 14.6208 12.708 15.5174 12.1562 16.0002L0.362933 27.8624C-0.119831 28.3451 0.225034 29.2417 0.914696 29.2417H12.7078C13.3285 29.2417 13.9492 28.9658 14.432 28.552L26.9149 16.0002C27.3977 15.5174 27.0528 14.6208 26.3632 14.6208H15.5355C14.7769 14.6208 14.4321 13.7243 14.9149 13.2415Z" fill="white"/>
<path d="M40.915 22.9658C39.8115 22.483 38.915 21.7934 38.2943 20.8968C37.6736 20.0002 37.3287 19.0347 37.2598 18.0002H41.0529C41.1219 18.7588 41.4668 19.3795 42.1564 19.8623C42.7771 20.3451 43.6046 20.6209 44.6391 20.6209C45.6736 20.6209 46.4322 20.414 47.0529 20.0002C47.6047 19.5864 47.8805 19.1037 47.8805 18.483C47.8805 17.7933 47.5357 17.3106 46.915 17.0347C46.2943 16.6899 45.2598 16.345 43.9495 16.0002C42.6391 15.6554 41.5357 15.3105 40.7081 14.9657C39.8805 14.6209 39.1218 14.0691 38.5701 13.3795C37.9494 12.6898 37.6736 11.7243 37.6736 10.6208C37.6736 9.65531 37.9495 8.82771 38.5012 8.06908C39.0529 7.31046 39.8805 6.68976 40.915 6.207C41.9495 5.72423 43.1219 5.51733 44.5012 5.51733C46.5012 5.51733 48.1564 6.0001 49.3289 7.03459C50.5702 8.06908 51.1909 9.44841 51.3288 11.1726H47.6737C47.6048 10.4139 47.2598 9.72427 46.7081 9.31048C46.1564 8.82771 45.3288 8.62081 44.3633 8.62081C43.3978 8.62081 42.6392 8.82771 42.1564 9.17254C41.6737 9.51737 41.3977 10.0001 41.3977 10.6208C41.3977 11.1036 41.5356 11.5174 41.8805 11.7933C42.2253 12.1381 42.6391 12.345 43.1219 12.5519C43.6047 12.7588 44.3633 12.9657 45.3288 13.2416C46.6391 13.5864 47.6737 13.9312 48.5013 14.276C49.3289 14.6209 50.0184 15.1726 50.6391 15.8623C51.2598 16.5519 51.5357 17.4485 51.5357 18.6209C51.5357 19.6554 51.2599 20.552 50.7082 21.3106C50.1564 22.0692 49.3979 22.6899 48.3634 23.1727C47.3289 23.6554 46.1563 23.8623 44.777 23.8623C43.2598 23.7244 42.0185 23.4485 40.915 22.9658Z" fill="white"/>
<path d="M69.3985 5.79321V23.4486H65.7432V21.3796C65.1915 22.1382 64.4328 22.6899 63.4673 23.1037C62.5707 23.5175 61.5362 23.7244 60.5017 23.7244C59.1224 23.7244 57.8811 23.4486 56.7776 22.8279C55.6742 22.2761 54.7776 21.3796 54.1569 20.2761C53.5362 19.1727 53.1914 17.7933 53.1914 16.1381V5.79321H56.8465V15.6554C56.8465 17.2416 57.2604 18.483 58.019 19.3106C58.7777 20.1382 59.8811 20.552 61.2604 20.552C62.6397 20.552 63.7432 20.1382 64.5018 19.3106C65.3294 18.483 65.6742 17.2416 65.6742 15.6554V5.79321H69.3985Z" fill="white"/>
<path d="M77.3977 6.27584C78.4322 5.72411 79.6736 5.44824 81.0529 5.44824C82.5702 5.44824 84.0185 5.86204 85.2599 6.5517C86.5013 7.31033 87.5357 8.34482 88.2254 9.72415C88.984 11.1035 89.3289 12.6897 89.3289 14.4138C89.3289 16.207 88.984 17.7932 88.2254 19.1725C87.4667 20.5518 86.5013 21.6553 85.2599 22.4139C84.0185 23.1726 82.5702 23.5864 81.0529 23.5864C79.6736 23.5864 78.5012 23.3105 77.4667 22.7588C76.4322 22.207 75.5357 21.5174 74.915 20.6898V29.1037H71.2598V5.79307H74.915V8.41379C75.4667 7.51723 76.3632 6.82757 77.3977 6.27584ZM84.8461 11.3793C84.3633 10.4828 83.6737 9.79311 82.8461 9.37932C82.0185 8.89655 81.1219 8.68965 80.2254 8.68965C79.3288 8.68965 78.4322 8.89655 77.6046 9.37932C76.777 9.86208 76.0874 10.5517 75.6047 11.4483C75.1219 12.3449 74.846 13.3794 74.846 14.6207C74.846 15.8621 75.1219 16.8966 75.6047 17.7932C76.0874 18.6898 76.777 19.3794 77.6046 19.8622C78.4322 20.3449 79.3288 20.5518 80.2254 20.5518C81.1909 20.5518 82.0185 20.3449 82.8461 19.8622C83.6737 19.3794 84.3633 18.6898 84.8461 17.7932C85.3288 16.8966 85.6048 15.7932 85.6048 14.6207C85.6048 13.3104 85.3978 12.2759 84.8461 11.3793Z" fill="white"/>
<path d="M108.432 15.9311H94.9149C95.0528 17.3104 95.5355 18.4829 96.501 19.3105C97.4665 20.1381 98.57 20.6208 99.9493 20.6208C101.949 20.6208 103.329 19.7932 104.087 18.138H108.018C107.467 19.7932 106.501 21.1036 105.122 22.1381C103.742 23.1726 102.018 23.7243 99.8804 23.7243C98.2253 23.7243 96.7079 23.3795 95.3286 22.6208C94.0182 21.8622 92.9149 20.8277 92.1563 19.4484C91.3976 18.0691 91.0527 16.4828 91.0527 14.6897C91.0527 12.8966 91.3976 11.2414 92.1563 9.86209C92.9149 8.48276 93.9494 7.44827 95.2597 6.68964C96.5701 5.93101 98.1563 5.58618 99.8804 5.58618C101.536 5.58618 103.053 5.93101 104.363 6.68964C105.674 7.44827 106.708 8.4138 107.398 9.72415C108.156 11.0345 108.501 12.5518 108.501 14.2759C108.57 14.8277 108.501 15.4484 108.432 15.9311ZM104.777 13.0345C104.777 11.6552 104.294 10.6207 103.329 9.79312C102.363 8.96553 101.191 8.55173 99.8114 8.55173C98.57 8.55173 97.4666 8.96553 96.57 9.72415C95.6735 10.5517 95.1217 11.5862 94.9838 12.9656H104.777V13.0345Z" fill="white"/>
<path d="M116.158 6.20687C117.054 5.72411 118.089 5.44824 119.33 5.44824V9.24138H118.434C116.985 9.24138 115.951 9.58621 115.192 10.3448C114.434 11.1035 114.089 12.3449 114.089 14.138V23.4484H110.434V5.79307H114.089V8.34482C114.571 7.44826 115.261 6.7586 116.158 6.20687Z" fill="white"/>
<path d="M146.295 6.3448C147.398 6.89653 148.294 7.79309 148.915 8.89655C149.536 10 149.881 11.3793 149.881 12.9656V23.4484H146.226V13.5173C146.226 11.9311 145.812 10.6897 145.053 9.86208C144.294 9.03449 143.191 8.62069 141.812 8.62069C140.432 8.62069 139.329 9.03449 138.57 9.86208C137.743 10.6897 137.398 11.9311 137.398 13.5173V23.4484H133.743V13.5173C133.743 11.9311 133.329 10.6897 132.57 9.86208C131.812 9.03449 130.708 8.62069 129.329 8.62069C127.949 8.62069 126.846 9.03449 126.087 9.86208C125.26 10.6897 124.915 11.9311 124.915 13.5173V23.4484H121.26V5.79307H124.915V7.79309C125.536 7.03447 126.294 6.48274 127.191 6.06894C128.087 5.65514 129.122 5.44824 130.156 5.44824C131.536 5.44824 132.846 5.72411 133.949 6.3448C135.053 6.9655 135.949 7.79309 136.501 8.96552C137.053 7.93103 137.881 7.03447 138.984 6.41377C140.088 5.79307 141.329 5.44824 142.639 5.44824C143.95 5.44824 145.191 5.79307 146.295 6.3448Z" fill="white"/>
<path d="M155.95 22.5519C154.571 21.7932 153.536 20.7587 152.778 19.3794C152.019 18.0001 151.605 16.4139 151.605 14.6208C151.605 12.8276 152.019 11.2414 152.778 9.86209C153.536 8.48276 154.64 7.3793 156.019 6.68964C157.399 5.93101 158.916 5.58618 160.571 5.58618C162.226 5.58618 163.812 5.93101 165.123 6.68964C166.502 7.44827 167.537 8.48276 168.364 9.86209C169.123 11.2414 169.537 12.8276 169.537 14.6208C169.537 16.4139 169.123 18.0001 168.295 19.3794C167.468 20.7587 166.364 21.8622 164.985 22.6208C163.606 23.3795 162.019 23.7243 160.364 23.7243C158.847 23.7243 157.33 23.3105 155.95 22.5519ZM163.123 19.8622C163.95 19.3794 164.64 18.7587 165.123 17.8622C165.606 16.9656 165.881 15.8621 165.881 14.6208C165.881 13.3104 165.606 12.2759 165.123 11.3793C164.64 10.4828 163.95 9.79312 163.192 9.37932C162.364 8.89656 161.537 8.68966 160.571 8.68966C159.606 8.68966 158.778 8.89656 157.95 9.37932C157.123 9.86209 156.502 10.4828 156.019 11.3793C155.536 12.2759 155.33 13.3794 155.33 14.6208C155.33 16.5518 155.812 18.0001 156.778 19.0346C157.743 20.0691 158.985 20.6208 160.433 20.6208C161.468 20.5519 162.295 20.345 163.123 19.8622Z" fill="white"/>
<path d="M177.813 20.1381L182.847 5.72412H186.709L179.951 23.3795H175.606L168.916 5.72412H172.847L177.813 20.1381Z" fill="white"/>
<path d="M203.192 15.9311H189.675C189.813 17.3104 190.295 18.4829 191.261 19.3105C192.226 20.1381 193.33 20.6208 194.709 20.6208C196.709 20.6208 198.089 19.7932 198.847 18.138H202.778C202.227 19.7932 201.261 21.1036 199.882 22.1381C198.502 23.1726 196.778 23.7243 194.64 23.7243C192.985 23.7243 191.468 23.3795 190.089 22.6208C188.778 21.8622 187.675 20.8277 186.916 19.4484C186.157 18.0691 185.812 16.4828 185.812 14.6897C185.812 12.8966 186.157 11.2414 186.916 9.86209C187.675 8.48276 188.709 7.44827 190.02 6.68964C191.33 5.93101 192.916 5.58618 194.64 5.58618C196.295 5.58618 197.813 5.93101 199.123 6.68964C200.433 7.44827 201.468 8.4138 202.158 9.72415C202.916 11.0345 203.261 12.5518 203.261 14.2759C203.33 14.8277 203.261 15.4484 203.192 15.9311ZM199.537 13.0345C199.537 11.6552 199.054 10.6207 198.089 9.79312C197.123 8.96553 195.951 8.55173 194.571 8.55173C193.33 8.55173 192.226 8.96553 191.33 9.72415C190.433 10.5517 189.882 11.5862 189.744 12.9656H199.537V13.0345Z" fill="white"/>
</svg>
